<?xml version="1.0" standalone="no"?>
<!DOCTYPE svg PUBLIC "-//W3C//DTD SVG 20010904//EN"
 "http://www.w3.org/TR/2001/REC-SVG-20010904/DTD/svg10.dtd">
<svg version="1.0" xmlns="http://www.w3.org/2000/svg"
 width="2367.000000pt" height="2367.000000pt" viewBox="0 0 2367.000000 2367.000000"
 preserveAspectRatio="xMidYMid meet">
<metadata>
Created by potrace 1.14, written by Peter Selinger 2001-2017
</metadata>
<g transform="translate(0.000000,2367.000000) scale(0.100000,-0.100000)"
fill="#000000" stroke="none">
<path d="M966 17703 c-17 -60 -957 -4527 -954 -4539 2 -8 56 -77 121 -154
l119 -140 634 0 634 0 5 23 c3 12 77 366 165 787 404 1927 513 2437 527 2479
24 70 59 119 105 143 l43 23 708 3 c557 2 707 0 707 -10 0 -7 -149 -720 -331
-1586 l-330 -1573 78 -92 c42 -51 98 -116 122 -145 l45 -52 635 2 636 3 345
1635 c190 899 353 1656 363 1682 22 57 82 113 135 128 27 7 268 9 734 8 l695
-3 -293 -1395 c-161 -767 -311 -1480 -333 -1583 l-39 -189 116 -136 c64 -75
121 -140 126 -144 6 -4 295 -8 642 -8 l631 0 11 53 c6 28 179 851 386 1827
206 976 383 1818 392 1870 10 56 17 151 18 230 1 236 -24 296 -229 537 -187
221 -246 262 -438 306 -89 20 -120 21 -962 24 -555 3 -904 0 -965 -6 -255 -28
-435 -118 -629 -313 l-75 -75 -95 111 c-52 61 -109 124 -125 139 -49 44 -169
97 -274 120 -96 22 -110 22 -1022 22 -826 0 -933 -2 -1000 -17 -112 -25 -239
-74 -320 -124 -39 -24 -75 -44 -78 -43 -4 0 -42 43 -85 95 l-79 94 -608 0
c-571 0 -609 -1 -614 -17z"/>
<path d="M9306 17703 c-18 -59 -788 -3729 -802 -3823 -32 -218 -7 -394 70
-509 47 -69 247 -301 306 -354 56 -51 155 -96 270 -123 69 -17 167 -18 1323
-21 1062 -3 1247 -6 1247 -18 0 -38 -74 -326 -96 -376 -31 -68 -54 -92 -114
-116 -42 -17 -135 -18 -1610 -21 l-1565 -3 -117 -545 -118 -545 117 -137 c64
-75 122 -141 129 -145 7 -4 888 -6 1956 -4 1933 3 1943 3 2038 24 222 49 338
110 457 236 113 121 206 303 263 512 43 159 1217 5680 1210 5693 -4 8 -60 76
-124 153 l-118 139 -634 0 c-499 0 -636 -3 -639 -12 -4 -9 -583 -2742 -741
-3490 l-6 -28 -934 0 c-614 0 -934 3 -934 10 0 5 153 733 341 1616 l340 1606
-23 29 c-13 15 -68 82 -123 148 l-100 120 -632 0 c-593 1 -632 0 -637 -16z"/>
<path d="M14876 17703 c-17 -60 -957 -4527 -954 -4539 2 -8 56 -77 121 -154
l119 -140 634 0 634 0 5 23 c3 12 77 366 165 787 425 2024 513 2437 532 2488
11 30 36 72 55 93 65 72 22 69 1085 69 l948 0 10 23 c5 12 59 257 120 544 110
516 112 523 93 547 -10 13 -65 81 -123 150 l-105 125 -690 0 c-389 1 -727 -3
-775 -9 -168 -19 -323 -73 -436 -151 -26 -17 -49 -27 -53 -22 -3 5 -39 48 -80
96 l-73 87 -613 0 c-576 0 -614 -1 -619 -17z"/>
<path d="M18960 17716 c0 -2 -45 -217 -99 -477 -55 -261 -101 -484 -103 -496
-2 -15 31 -61 120 -167 l123 -146 1518 -2 1518 -3 -233 -1090 c-128 -599 -233
-1091 -234 -1092 0 -2 -448 -3 -995 -3 -738 0 -995 3 -995 11 0 7 23 120 50
253 57 270 82 337 140 371 34 20 54 20 922 23 690 2 887 5 891 15 2 6 39 181
82 388 l78 376 -123 147 -124 146 -1230 0 c-1297 0 -1327 -1 -1476 -46 -143
-42 -284 -151 -358 -276 -103 -174 -141 -311 -302 -1084 -171 -815 -178 -871
-145 -1027 22 -107 54 -163 166 -297 221 -264 261 -295 439 -342 l85 -23 2084
0 2084 0 393 1860 c216 1023 400 1908 408 1967 30 201 16 349 -42 464 -37 73
-297 383 -360 429 -54 39 -153 78 -262 102 -68 15 -250 17 -2047 20 -1085 2
-1973 2 -1973 -1z"/>
<path d="M8005 10790 c-6 -9 -105 -456 -105 -473 0 -4 27 28 60 71 33 44 94
112 136 151 50 47 73 75 68 83 -9 16 -146 178 -150 178 -2 0 -5 -4 -9 -10z"/>
<path d="M16875 10788 c-2 -7 -45 -209 -95 -448 -50 -239 -94 -438 -98 -441
-4 -4 -691 -575 -1527 -1269 -836 -694 -1529 -1271 -1540 -1281 -19 -19 -13
-19 280 -19 l300 0 1365 1135 c751 624 1371 1145 1378 1157 6 13 53 218 102
457 77 370 88 436 77 450 -168 200 -229 271 -233 271 -3 0 -7 -6 -9 -12z"/>
<path d="M11428 10618 c47 -70 73 -126 88 -197 18 -87 18 -269 -1 -395 -9 -55
-190 -927 -404 -1936 l-388 -1835 -627 -3 -627 -2 107 -128 c59 -70 116 -135
127 -144 18 -17 63 -18 646 -18 l627 0 117 553 c64 303 242 1148 396 1877 304
1437 314 1493 291 1672 -12 102 -39 183 -78 242 -30 44 -292 356 -299 356 -2
0 9 -19 25 -42z"/>
<path d="M12397 9718 c11 -13 66 -78 123 -145 l103 -123 993 0 993 0 182 145
182 145 -1298 0 -1298 0 20 -22z"/>
<path d="M7963 9710 c-89 -18 -137 -62 -173 -157 -17 -45 -700 -3260 -700
-3294 0 -5 -283 -10 -630 -11 l-629 -3 120 -142 121 -143 634 0 634 0 5 23 c3
12 77 366 165 787 404 1927 513 2437 527 2479 24 70 59 119 105 143 l43 23
977 3 977 2 11 38 c6 20 13 62 16 92 7 71 -17 112 -84 143 l-47 22 -1015 2
c-558 0 -1034 -3 -1057 -7z"/>
<path d="M16138 7318 c-2 -7 -54 -250 -114 -540 l-109 -528 -2141 -2 -2142 -3
121 -142 120 -143 2148 0 2147 0 10 48 c6 26 56 268 112 539 l103 492 -113
133 c-148 175 -136 162 -142 146z"/>
</g>
</svg>
